<?xml version="1.0" encoding="iso-8859-1"?>
<!-- Generator: Adobe Illustrator 19.0.0, SVG Export Plug-In . SVG Version: 6.00 Build 0)  -->
<svg xmlns="http://www.w3.org/2000/svg" xmlns:xlink="http://www.w3.org/1999/xlink" version="1.1" id="Capa_1" x="0px" y="0px" viewBox="0 0 512.009 512.009" style="enable-background:new 0 0 512.009 512.009;" xml:space="preserve" width="512px" height="512px">
<g>
	<g>
		<g>
			<path d="M505.938,89.008C488.998,35.961,439.686-0.033,384,0.003c-47.649,0.054-91.329,26.559-113.378,68.8     c-13.719-11.342-30.954-17.564-48.755-17.6h-51.2c-42.395,0.049-76.751,34.405-76.8,76.8v43.604     c-0.009,3.709-0.894,7.364-2.583,10.667l-1.638,3.442c-2.839,5.629-4.316,11.846-4.313,18.15v30.292     c0.026,10.769,4.297,21.094,11.888,28.733c3.345,3.379,5.618,7.671,6.533,12.338c4.28,18.794,12.549,36.45,24.246,51.771     l-0.042,26.563l-94.813,56.921C12.652,422.874,0.093,445.046,0,468.995v34.475c0,4.713,3.82,8.533,8.533,8.533H162.11     l0.023,0.004l0.028-0.004h68.212l0.028,0.004l0.023-0.004H384c4.713,0,8.533-3.82,8.533-8.533v-34.475     c-0.094-23.952-12.657-46.125-33.154-58.517l-94.846-56.938v-26.483c11.683-15.332,19.947-32.99,24.233-51.783     c0.914-4.683,3.192-8.991,6.546-12.383c7.59-7.64,11.862-17.964,11.888-28.733v-3.998     c44.507,33.468,105.552,34.299,150.953,2.054C503.553,199.967,522.878,142.056,505.938,89.008z M136.638,368.257     c0.164-0.095,0.28-0.239,0.44-0.339l44.244,18.962l-20.709,20.706l-46.881-25.577L136.638,368.257z M196.267,396.069     l15.534,15.534l-11.272,15.066h-8.525l-11.272-15.066L196.267,396.069z M17.066,494.936l0-25.941     c-0.06-17.998,9.399-34.688,24.871-43.883l48.838-29.321l56.654,99.145H17.066z M160.524,483.454l-46.889-82.056l44.411,24.229     c1.253,0.683,2.656,1.041,4.083,1.042c2.265,0.001,4.437-0.898,6.038-2.5l0.372-0.372l9.564,12.78L160.524,483.454z      M174.448,494.936l19.2-51.2h5.236l19.2,51.2H174.448z M350.587,425.107c15.476,9.195,24.938,25.886,24.879,43.888l0,25.941     H245.104l56.654-99.145L350.587,425.107z M232.009,483.455l-17.578-46.878l9.564-12.78l0.372,0.372     c2.677,2.677,6.797,3.271,10.121,1.458l44.411-24.229L232.009,483.455z M278.802,382.009l-46.881,25.577l-20.709-20.706     l44.23-18.956c0.127,0.079,0.22,0.194,0.35,0.27L278.802,382.009z M290.133,234.157c-0.015,6.245-2.489,12.233-6.888,16.667     c-5.74,5.777-9.642,13.123-11.217,21.112c-3.813,16.418-11.102,31.829-21.375,45.192c-2.064,2.878-3.178,6.329-3.188,9.871     v25.779l-51.2,21.942l-51.2-21.942v-25.779c-0.015-3.574-1.148-7.053-3.242-9.95c-10.257-13.355-17.532-28.754-21.333-45.158     c-1.575-7.974-5.474-15.303-11.204-21.067c-4.398-4.434-6.873-10.422-6.887-16.667v-30.292c0.009-3.709,0.894-7.364,2.583-10.667     l1.638-3.442c2.839-5.629,4.316-11.846,4.313-18.15v-43.604c0.037-32.974,26.759-59.696,59.733-59.733h51.2     c15.558,0.027,30.494,6.117,41.634,16.978c-16.116,44.74-5.833,94.736,26.633,129.483V234.157z M384,238.936     c-61.267,0-110.933-49.667-110.933-110.933S322.733,17.069,384,17.069s110.933,49.667,110.933,110.933     C494.866,189.241,445.239,238.868,384,238.936z" fill="#029adb"/>
			<path d="M439.433,60.861c-1.965-1.123-4.295-1.419-6.478-0.824c-2.183,0.595-4.041,2.034-5.163,3.999l-63.471,111.075l-26.4-19.8     c-2.438-1.829-5.667-2.219-8.471-1.022c-2.804,1.197-4.756,3.799-5.121,6.825c-0.365,3.026,0.912,6.018,3.35,7.847l34.133,25.6     c1.477,1.109,3.274,1.709,5.121,1.708c0.581,0,1.16-0.059,1.729-0.175c2.396-0.498,4.464-2,5.679-4.125l68.267-119.467     C444.946,68.411,443.525,63.199,439.433,60.861z" fill="#029adb"/>
		</g>
	</g>
</g>
<g>
</g>
<g>
</g>
<g>
</g>
<g>
</g>
<g>
</g>
<g>
</g>
<g>
</g>
<g>
</g>
<g>
</g>
<g>
</g>
<g>
</g>
<g>
</g>
<g>
</g>
<g>
</g>
<g>
</g>
</svg>
